<?xml version="1.0" standalone="no"?>
<!DOCTYPE svg PUBLIC "-//W3C//DTD SVG 20010904//EN"
 "http://www.w3.org/TR/2001/REC-SVG-20010904/DTD/svg10.dtd">
<svg version="1.0" xmlns="http://www.w3.org/2000/svg"
 width="260.000000pt" height="260.000000pt" viewBox="0 0 260.000000 260.000000"
 preserveAspectRatio="xMidYMid meet">
<metadata>
Created by potrace 1.11, written by Peter Selinger 2001-2013
</metadata>
<g transform="translate(0.000000,260.000000) scale(0.100000,-0.100000)"
fill="#000000" stroke="none">
<path d="M102 2159 c-67 -33 -97 -87 -97 -170 0 -60 3 -71 31 -106 74 -93 197
-102 281 -21 58 56 71 144 32 219 -43 85 -159 122 -247 78z"/>
<path d="M2358 2171 c-136 -44 -174 -219 -68 -315 86 -78 198 -67 274 27 28
35 31 46 31 105 0 79 -25 128 -82 162 -41 24 -114 34 -155 21z"/>
<path d="M1270 2139 c-68 -11 -115 -35 -159 -81 -146 -151 -52 -410 159 -435
105 -12 213 44 262 137 31 60 34 163 8 223 -47 106 -163 173 -270 156z"/>
<path d="M234 1616 c-14 -11 -19 -26 -18 -63 1 -50 14 -174 20 -184 1 -3 6
-28 9 -55 3 -27 13 -96 21 -154 8 -58 17 -121 20 -140 5 -37 23 -157 30 -200
2 -14 6 -50 10 -80 14 -131 31 -175 91 -231 83 -80 15 -74 883 -74 l775 0 40
22 c55 29 105 80 126 128 10 22 25 94 34 160 9 66 18 131 20 145 2 14 9 61 15
105 11 77 13 94 24 160 2 17 7 53 11 80 7 60 13 99 26 185 25 158 17 210 -33
204 -13 -1 -26 -3 -31 -3 -4 -1 -122 -115 -262 -254 -201 -200 -263 -256 -294
-265 -54 -17 -79 -15 -127 9 -36 17 -58 43 -135 156 -51 75 -106 143 -121 153
-36 22 -104 19 -141 -4 -15 -10 -64 -73 -109 -140 -45 -66 -91 -129 -102 -140
-26 -23 -79 -46 -107 -46 -70 0 -96 20 -342 265 -203 202 -284 275 -310 275
-2 0 -12 -6 -23 -14z"/>
</g>
</svg>
